<?xml version="1.0" encoding="UTF-8" standalone="no"?>
<svg
   width="128px"
   height="128px"
   viewBox="0 0 128 128"
   version="1.1"
   id="svg17"
   sodipodi:docname="ambi.svg"
   inkscape:version="1.4 (e7c3feb100, 2024-10-09)"
   xmlns:inkscape="http://www.inkscape.org/namespaces/inkscape"
   xmlns:sodipodi="http://sodipodi.sourceforge.net/DTD/sodipodi-0.dtd"
   xmlns="http://www.w3.org/2000/svg"
   xmlns:svg="http://www.w3.org/2000/svg"
   xmlns:rdf="http://www.w3.org/1999/02/22-rdf-syntax-ns#"
   xmlns:cc="http://creativecommons.org/ns#"
   xmlns:dc="http://purl.org/dc/elements/1.1/">
  <sodipodi:namedview
     id="namedview1"
     pagecolor="#ffffff"
     bordercolor="#000000"
     borderopacity="0.25"
     inkscape:showpageshadow="2"
     inkscape:pageopacity="0.0"
     inkscape:pagecheckerboard="0"
     inkscape:deskcolor="#d1d1d1"
     inkscape:zoom="1.1585828"
     inkscape:cx="-120.40572"
     inkscape:cy="192.90809"
     inkscape:window-width="1912"
     inkscape:window-height="1052"
     inkscape:window-x="0"
     inkscape:window-y="0"
     inkscape:window-maximized="0"
     inkscape:current-layer="figure_1" />
  <metadata
     id="metadata1">
    <rdf:RDF>
      <cc:Work>
        <dc:type
           rdf:resource="http://purl.org/dc/dcmitype/StillImage" />
        <dc:date>2025-03-06T12:43:46.841343</dc:date>
        <dc:format>image/svg+xml</dc:format>
        <dc:creator>
          <cc:Agent>
            <dc:title>Matplotlib v3.10.0, https://matplotlib.org/</dc:title>
          </cc:Agent>
        </dc:creator>
      </cc:Work>
    </rdf:RDF>
  </metadata>
  <defs
     id="defs1">
    <style
       type="text/css"
       id="style1">*{stroke-linejoin: round; stroke-linecap: butt}</style>
  </defs>
  <g
     id="figure_1"
     transform="translate(-0.40987111,-0.40985669)">
    <g
       id="patch_1" />
    <g
       id="axes_1"
       transform="matrix(1.293834,0,0,1.293834,-70.864375,-66.672353)"
       style="stroke-width:0.772897">
      <g
         id="matplotlib.axis_2"
         style="stroke-width:0.772897">
        <g
           id="ytick_1">
          <g
             id="line2d_9" />
        </g>
        <g
           id="ytick_2">
          <g
             id="line2d_10" />
        </g>
        <g
           id="ytick_3">
          <g
             id="line2d_11" />
        </g>
        <g
           id="ytick_4">
          <g
             id="line2d_12" />
        </g>
        <g
           id="ytick_5">
          <g
             id="line2d_13" />
        </g>
        <g
           id="patch_3">
          <path
             id="path16"
             style="stroke-width:0.772894;stroke-linecap:square"
             d="m 104.55302,51.847617 c -6.495745,0 -12.928731,1.279432 -18.930021,3.765246 -6.001287,2.485814 -11.454046,6.129708 -16.047232,10.722894 -4.593184,4.593184 -8.237078,10.046524 -10.722892,16.047811 -2.485814,6.001286 -3.765247,12.433693 -3.765247,18.929442 0,6.49574 1.279433,12.92814 3.765247,18.92943 2.485814,6.00129 6.129708,11.45463 10.722892,16.04781 4.593186,4.59319 10.045945,8.23708 16.047232,10.7229 6.00129,2.48581 12.434276,3.76524 18.930021,3.76524 6.49575,0 12.92815,-1.27943 18.92944,-3.76524 6.00128,-2.48582 11.45462,-6.12971 16.04781,-10.7229 4.59319,-4.59318 8.23708,-10.04652 10.72289,-16.04781 2.47409,-5.97297 3.7486,-12.37333 3.76061,-18.83783 h 0.005 v -0.0916 -0.0916 h -0.005 c -0.012,-6.464496 -1.28652,-12.864863 -3.76061,-18.837832 -2.48581,-6.001287 -6.1297,-11.454627 -10.72289,-16.047811 -4.59319,-4.593186 -10.04653,-8.23708 -16.04781,-10.722894 -6.00129,-2.485814 -12.43369,-3.765246 -18.92944,-3.765246 z m 0,0.183218 c 6.47164,0 12.88027,1.274741 18.85928,3.751331 5.97902,2.47659 11.41195,6.107325 15.9881,10.683468 4.57614,4.57614 8.20629,10.009074 10.68288,15.988091 2.47659,5.979016 3.75133,12.387638 3.75133,18.859285 0,6.47164 -1.27474,12.88026 -3.75133,18.85927 -2.47659,5.97902 -6.10674,11.41195 -10.68288,15.9881 -4.57615,4.57614 -10.00908,8.2063 -15.9881,10.68288 -5.97901,2.47659 -12.38764,3.75133 -18.85928,3.75133 -6.47164,0 -12.880263,-1.27474 -18.859285,-3.75133 -5.979017,-2.47658 -11.41253,-6.10674 -15.988671,-10.68288 -4.576141,-4.57615 -8.206296,-10.00908 -10.682886,-15.9881 -2.47659,-5.97901 -3.751332,-12.38763 -3.751332,-18.85927 0,-6.471647 1.274742,-12.880269 3.751332,-18.859285 2.47659,-5.979017 6.106745,-11.411951 10.682886,-15.988091 4.576141,-4.576143 10.009654,-8.206878 15.988671,-10.683468 5.979022,-2.47659 12.387645,-3.751331 18.859285,-3.751331 z m 0,-0.183218 c -6.495745,0 -12.928731,1.279432 -18.930021,3.765246 -6.001287,2.485814 -11.454046,6.129708 -16.047232,10.722894 -4.593184,4.593184 -8.237078,10.046524 -10.722892,16.047811 -2.485814,6.001286 -3.765247,12.433693 -3.765247,18.929442 0,6.49574 1.279433,12.92814 3.765247,18.92943 2.485814,6.00129 6.129708,11.45463 10.722892,16.04781 4.593186,4.59319 10.045945,8.23708 16.047232,10.7229 6.00129,2.48581 12.434276,3.76524 18.930021,3.76524 6.49575,0 12.92815,-1.27943 18.92944,-3.76524 6.00128,-2.48582 11.45462,-6.12971 16.04781,-10.7229 4.59319,-4.59318 8.23708,-10.04652 10.72289,-16.04781 2.47409,-5.97297 3.7486,-12.37333 3.76061,-18.83783 h 0.005 v -0.0916 -0.0916 h -0.005 c -0.012,-6.464496 -1.28652,-12.864863 -3.76061,-18.837832 -2.48581,-6.001287 -6.1297,-11.454627 -10.72289,-16.047811 -4.59319,-4.593186 -10.04653,-8.23708 -16.04781,-10.722894 -6.00129,-2.485814 -12.43369,-3.765246 -18.92944,-3.765246 z m 0,0.183218 c 6.47164,0 12.88027,1.274741 18.85928,3.751331 5.97902,2.47659 11.41195,6.107325 15.9881,10.683468 4.57614,4.57614 8.20629,10.009074 10.68288,15.988091 2.47659,5.979016 3.75133,12.387638 3.75133,18.859285 0,6.47164 -1.27474,12.88026 -3.75133,18.85927 -2.47659,5.97902 -6.10674,11.41195 -10.68288,15.9881 -4.57615,4.57614 -10.00908,8.2063 -15.9881,10.68288 -5.97901,2.47659 -12.38764,3.75133 -18.85928,3.75133 -6.47164,0 -12.880263,-1.27474 -18.859285,-3.75133 -5.979017,-2.47658 -11.41253,-6.10674 -15.988671,-10.68288 -4.576141,-4.57615 -8.206296,-10.00908 -10.682886,-15.9881 -2.47659,-5.97901 -3.751332,-12.38763 -3.751332,-18.85927 0,-6.471647 1.274742,-12.880269 3.751332,-18.859285 2.47659,-5.979017 6.106745,-11.411951 10.682886,-15.988091 4.576141,-4.576143 10.009654,-8.206878 15.988671,-10.683468 5.979022,-2.47659 12.387645,-3.751331 18.859285,-3.751331 z m 0,9.691422 c -5.199006,0 -10.347599,1.024246 -15.150856,3.01382 -4.803259,1.989576 -9.168146,4.906005 -12.844399,8.582257 -3.67625,3.676253 -6.592103,8.040561 -8.581676,12.843817 -1.989573,4.803253 -3.01382,9.951849 -3.01382,15.150859 0,5.199 1.024247,10.34759 3.01382,15.15085 1.989573,4.80325 4.905426,9.16756 8.581676,12.84381 3.676253,3.67626 8.04114,6.59269 12.844399,8.58226 4.803257,1.98958 9.95185,3.01382 15.150856,3.01382 5.19901,0 10.3476,-1.02424 15.15086,-3.01382 4.80325,-1.98957 9.16756,-4.906 12.84381,-8.58226 3.67625,-3.67625 6.59269,-8.04056 8.58226,-12.84381 1.97785,-4.77494 2.99718,-9.89149 3.00918,-15.05925 h 0.005 v -0.0916 -0.0916 h -0.005 c -0.012,-5.167757 -1.03133,-10.28431 -3.00918,-15.059249 -1.98957,-4.803256 -4.90601,-9.167564 -8.58226,-12.843817 -3.67625,-3.676252 -8.04056,-6.592681 -12.84381,-8.582257 -4.80326,-1.989574 -9.95185,-3.01382 -15.15086,-3.01382 z m 0,0.183797 c 5.1749,0 10.29913,1.018976 15.08012,2.999326 4.78099,1.980351 9.12547,4.883044 12.78468,8.542251 3.65921,3.659207 6.56248,8.003688 8.54283,12.784674 1.98035,4.780989 2.99932,9.905797 2.99932,15.080705 0,5.1749 -1.01897,10.29971 -2.99932,15.08069 -1.98035,4.78099 -4.88362,9.12489 -8.54283,12.7841 -3.65921,3.65921 -8.00369,6.56248 -12.78468,8.54283 -4.78099,1.98035 -9.90522,2.99932 -15.08012,2.99932 -5.174901,0 -10.299713,-1.01897 -15.080699,-2.99932 -4.780989,-1.98035 -9.12547,-4.88362 -12.78468,-8.54283 -3.659207,-3.65921 -6.5619,-8.00311 -8.542249,-12.7841 -1.980349,-4.78098 -2.999905,-9.90579 -2.999905,-15.08069 0,-5.174908 1.019556,-10.299716 2.999905,-15.080705 1.980349,-4.780986 4.883042,-9.125467 8.542249,-12.784674 3.65921,-3.659207 8.003691,-6.5619 12.78468,-8.542251 4.780986,-1.98035 9.905798,-2.999326 15.080699,-2.999326 z m 0,9.690842 c -3.90227,0 -7.766467,0.768483 -11.371693,2.261815 -3.605227,1.493334 -6.881663,3.682302 -9.640982,6.441621 -2.759322,2.759322 -4.948287,6.035752 -6.441622,9.640981 -1.493334,3.60522 -2.261815,7.469423 -2.261815,11.371697 0,3.90226 0.768481,7.76646 2.261815,11.37169 1.493335,3.60522 3.6823,6.88108 6.441622,9.6404 2.759319,2.75932 6.035755,4.94829 9.640982,6.44162 3.605226,1.49333 7.469423,2.26239 11.371693,2.26239 3.90227,0 7.76646,-0.76906 11.37169,-2.26239 3.60523,-1.49333 6.88108,-3.6823 9.6404,-6.44162 2.75933,-2.75932 4.94829,-6.03518 6.44163,-9.6404 1.4816,-3.57691 2.24577,-7.40908 2.25775,-11.28009 h 0.005 v -0.0916 -0.0916 h -0.005 c -0.012,-3.871021 -0.77615,-7.703179 -2.25775,-11.280087 -1.49334,-3.605229 -3.6823,-6.881659 -6.44163,-9.640981 -2.75932,-2.759319 -6.03517,-4.948287 -9.6404,-6.441621 -3.60523,-1.493332 -7.46942,-2.261815 -11.37169,-2.261815 z m 0,0.183798 c 3.87817,0 7.71858,0.763793 11.30154,2.2479 3.58295,1.484108 6.8384,3.659338 9.58068,6.401614 2.74227,2.742279 4.91808,5.9983 6.40219,9.581259 1.48411,3.582955 2.2479,7.423371 2.2479,11.301543 0,3.87816 -0.76379,7.71858 -2.2479,11.30153 -1.48411,3.58296 -3.65992,6.83898 -6.40219,9.58126 -2.74228,2.74228 -5.99773,4.91751 -9.58068,6.40161 -3.58296,1.48412 -7.42337,2.24791 -11.30154,2.24791 -3.87816,0 -7.718581,-0.76379 -11.301537,-2.24791 -3.582955,-1.4841 -6.838986,-3.65933 -9.581262,-6.40161 -2.742279,-2.74228 -4.917506,-5.9983 -6.401617,-9.58126 -1.484108,-3.58295 -2.247898,-7.42337 -2.247898,-11.30153 0,-3.878172 0.76379,-7.718588 2.247898,-11.301543 1.484111,-3.582959 3.659338,-6.83898 6.401617,-9.581259 2.742276,-2.742276 5.998307,-4.917506 9.581262,-6.401614 3.582956,-1.484107 7.423377,-2.2479 11.301537,-2.2479 z m 0,9.690844 c -2.60553,0 -5.185917,0.513297 -7.59311,1.510389 -2.407196,0.997092 -4.594597,2.458597 -6.436985,4.300985 -1.842388,1.842384 -3.303893,4.029785 -4.300988,6.436981 -0.997092,2.407196 -1.510389,4.987582 -1.510389,7.593117 0,2.60552 0.513297,5.18591 1.510389,7.59311 0.997095,2.40719 2.4586,4.59459 4.300988,6.43698 1.842388,1.84239 4.029789,3.30389 6.436985,4.30099 2.407193,0.99708 4.98758,1.51038 7.59311,1.51038 2.60553,0 5.18534,-0.5133 7.59253,-1.51038 2.4072,-0.9971 4.5946,-2.4586 6.43699,-4.30099 1.84238,-1.84239 3.30447,-4.02979 4.30156,-6.43698 0.98536,-2.37888 1.49324,-4.92723 1.50517,-7.50151 h 0.005 v -0.0916 -0.0916 h -0.005 c -0.0119,-2.574273 -0.51981,-5.122629 -1.50517,-7.501507 -0.99709,-2.407196 -2.45918,-4.594597 -4.30156,-6.436981 -1.84239,-1.842388 -4.02979,-3.303893 -6.43699,-4.300985 -2.40719,-0.997092 -4.987,-1.510389 -7.59253,-1.510389 z m 0,0.183798 c 2.58143,0 5.13745,0.508606 7.52238,1.496472 2.38492,0.987871 4.5525,2.435635 6.37784,4.26098 1.82534,1.825342 3.27311,3.992336 4.26098,6.377262 0.98787,2.384925 1.49647,4.941527 1.49647,7.52296 0,2.58142 -0.5086,5.13744 -1.49647,7.52237 -0.98787,2.38493 -2.43564,4.5525 -4.26098,6.37784 -1.82534,1.82535 -3.99292,3.27311 -6.37784,4.26098 -2.38493,0.98787 -4.94095,1.49648 -7.52238,1.49648 -2.58143,0 -5.138028,-0.50861 -7.522956,-1.49648 -2.384926,-0.98787 -4.551921,-2.43563 -6.377263,-4.26098 -1.825342,-1.82534 -3.273111,-3.99291 -4.26098,-6.37784 -0.987869,-2.38493 -1.496475,-4.94095 -1.496475,-7.52237 0,-2.581433 0.508606,-5.138035 1.496475,-7.52296 0.987869,-2.384926 2.435638,-4.55192 4.26098,-6.377262 1.825342,-1.825345 3.992337,-3.273109 6.377263,-4.26098 2.384928,-0.987866 4.941526,-1.496472 7.522956,-1.496472 z m 0,9.690841 c -1.30879,0 -2.60479,0.258111 -3.81395,0.758963 -1.209163,0.50085 -2.308111,1.234891 -3.233565,2.160348 -0.925457,0.925457 -1.659498,2.024402 -2.160351,3.233567 -0.50085,1.209165 -0.758963,2.505155 -0.758963,3.813955 0,1.30878 0.258113,2.60478 0.758963,3.81394 0.500853,1.20917 1.234894,2.30811 2.160351,3.23357 0.925454,0.92546 2.024402,1.6595 3.233565,2.16035 1.20916,0.50085 2.50516,0.75838 3.81395,0.75838 1.30879,0 2.60479,-0.25753 3.81395,-0.75838 1.20916,-0.50085 2.30811,-1.23489 3.23357,-2.16035 0.92545,-0.92546 1.65949,-2.0244 2.16035,-3.23357 0.48904,-1.18066 0.73724,-2.44501 0.7491,-3.72234 h 0.009 v -0.0916 -0.0916 h -0.009 c -0.0118,-1.277332 -0.26005,-2.541669 -0.7491,-3.722345 -0.50086,-1.209165 -1.2349,-2.30811 -2.16035,-3.233567 -0.92546,-0.925457 -2.0244,-1.659498 -3.23357,-2.160348 -1.20916,-0.500852 -2.50516,-0.758963 -3.81395,-0.758963 z m 0,0.183798 c 1.28469,0 2.5569,0.252841 3.74379,0.744467 1.1869,0.491626 2.26544,1.212511 3.17385,2.120922 0.90841,0.908411 1.62871,1.986953 2.12034,3.173848 0.49163,1.186895 0.74505,2.459108 0.74505,3.743798 0,1.28468 -0.25342,2.55689 -0.74505,3.74379 -0.49163,1.1869 -1.21193,2.26543 -2.12034,3.17384 -0.90841,0.90842 -1.98695,1.62872 -3.17385,2.12035 -1.18689,0.49162 -2.4591,0.74504 -3.74379,0.74504 -1.28469,0 -2.5569,-0.25342 -3.74379,-0.74504 -1.186899,-0.49163 -2.265438,-1.21193 -3.173849,-2.12035 -0.908414,-0.90841 -1.629296,-1.98694 -2.120925,-3.17384 -0.491626,-1.1869 -0.744467,-2.45911 -0.744467,-3.74379 0,-1.28469 0.252841,-2.556903 0.744467,-3.743798 0.491629,-1.186895 1.212511,-2.265437 2.120925,-3.173848 0.908411,-0.908411 1.98695,-1.629296 3.173849,-2.120922 1.18689,-0.491626 2.4591,-0.744467 3.74379,-0.744467 z" />
        </g>
      </g>
    </g>
    <path
       style="fill:#2261c5;fill-rule:evenodd;stroke-width:0.737008;stroke-opacity:1;fill-opacity:1;stroke:#000000"
       d="M 61.678756,76.288778 C 56.184881,75.024627 52.391047,71.03167 51.594355,65.675093 c -1.187659,-7.985258 6.09548,-15.268397 14.080738,-14.080738 5.34022,0.794259 9.478597,4.716739 10.574624,10.022953 0.437833,2.119685 0.437833,2.645699 0,4.765384 -0.938686,4.544474 -3.969878,7.97087 -8.353226,9.442311 -2.069315,0.694646 -4.444474,0.871808 -6.217735,0.463775 z"
       id="path1"
       transform="translate(0.40987111,0.40985669)" />
    <path
       style="fill:#5b92e4;fill-opacity:1;fill-rule:evenodd;stroke-width:0.737008;stroke-opacity:1;stroke:#000000"
       d="m 61.61691,89.187999 c -3.754056,-0.36682 -7.679825,-1.705603 -11.022986,-3.759106 -2.662244,-1.635256 -6.387562,-5.360573 -8.022818,-8.022816 -5.116216,-8.329347 -5.116216,-18.550244 0,-26.791469 2.232406,-3.59597 6.323586,-7.335348 10.13581,-9.264229 C 55.929337,39.719922 60.153938,38.745451 64,38.745451 c 11.609713,0 21.639032,7.848217 24.54822,19.209654 1.636066,6.389443 0.469037,13.657484 -3.119327,19.42659 -1.326161,2.132104 -4.044941,5.157894 -5.942239,6.613247 -5.017536,3.848783 -11.713325,5.794622 -17.869744,5.193057 z m 4.989992,-12.494365 c 9.005877,-1.847409 13.257319,-12.155408 8.209102,-19.903706 -1.557222,-2.390118 -4.044758,-4.267458 -6.874846,-5.188437 -2.302846,-0.749401 -5.59043,-0.745792 -7.90932,0.0087 -1.844227,0.600038 -4.4607,2.243389 -5.55353,3.488054 -1.254985,1.429349 -2.332038,3.286556 -2.876817,4.960615 -0.750652,2.306689 -0.745868,5.589254 0.01154,7.920431 1.411264,4.343614 5.179601,7.749383 9.623579,8.697648 2.041618,0.435647 3.308813,0.439589 5.370287,0.01671 z"
       id="path2"
       transform="translate(0.40987111,0.40985669)" />
    <path
       style="fill:#94b8ed;fill-opacity:1;fill-rule:evenodd;stroke-width:0.737008;stroke-opacity:1;stroke:#000000"
       d="M 58.457414,101.69941 C 42.268496,99.060522 30.099885,87.445698 26.603694,71.295337 26.164745,69.267647 26.101197,68.34505 26.101197,64 c 0,-4.34505 0.06355,-5.267647 0.502497,-7.295337 C 29.957392,41.212536 41.212536,29.957392 56.704663,26.603694 58.732353,26.164745 59.65495,26.101197 64,26.101197 c 4.34505,0 5.267647,0.06355 7.295337,0.502497 15.524627,3.360733 26.740237,14.576343 30.100973,30.100969 0.43894,2.02769 0.50249,2.950287 0.50249,7.295337 0,4.34505 -0.0635,5.267647 -0.50249,7.295337 -3.348591,15.468519 -14.625243,26.775973 -29.990438,30.072353 -2.880745,0.61802 -10.06324,0.80203 -12.948458,0.33172 z M 69.195164,89.204697 C 79.462617,87.14322 87.349033,79.115058 89.334631,68.703255 89.853652,65.981681 89.816939,61.623044 89.252185,58.915371 86.718024,46.765505 76.43323,38.333357 64.110535,38.302598 c -3.299787,-0.0082 -5.797193,0.397163 -8.682529,1.409418 -13.604988,4.773006 -20.544465,19.675395 -15.539573,33.370921 2.557397,6.998134 8.36223,12.689394 15.489805,15.186743 4.534616,1.588831 9.041485,1.893821 13.816926,0.935017 z"
       id="path3"
       transform="translate(0.40987111,0.40985669)" />
    <path
       style="fill:#d5e3f8;fill-opacity:1;fill-rule:evenodd;stroke-width:0.737008;stroke-opacity:1;stroke:#000000"
       d="m 59.689119,114.71032 c -6.705697,-0.69718 -12.346668,-2.30209 -18.127806,-5.15755 -10.237378,-5.05651 -18.119566,-12.9361 -23.1217,-23.114083 -2.432824,-4.950135 -3.860069,-9.44743 -4.770761,-15.032815 -0.556966,-3.415948 -0.556966,-11.395796 0,-14.811744 0.910692,-5.585385 2.337937,-10.08268 4.770761,-15.032815 5.002134,-10.177983 12.884322,-18.057575 23.1217,-23.114085 4.926547,-2.433353 9.43006,-3.864852 15.032815,-4.778376 3.415948,-0.556966 11.395796,-0.556966 14.811744,0 5.58313,0.910324 10.07958,2.337006 15.032815,4.769774 10.16108,4.990588 18.124113,12.953964 23.121703,23.122687 2.42493,4.934081 3.844,9.408349 4.76783,15.032815 0.56196,3.42132 0.56196,11.390424 0,14.811744 -0.92671,5.64197 -2.34988,10.122026 -4.77545,15.032815 -5.05651,10.237378 -12.9361,18.119563 -23.114083,23.121703 -7.195242,3.53622 -13.416445,5.03572 -21.443868,5.16865 -2.431779,0.0403 -4.819344,0.0318 -5.3057,-0.0187 z M 71.626943,101.81105 C 87.100361,98.482895 98.463863,87.088359 101.83908,71.516408 102.28241,69.471034 102.34221,68.57774 102.34221,64 c 0,-4.57774 -0.0598,-5.471034 -0.50313,-7.516408 C 98.453174,40.862329 87.137671,29.546826 71.516408,26.16092 69.471034,25.717586 68.57774,25.657791 64,25.657791 c -4.57774,0 -5.471034,0.0598 -7.516408,0.503129 -10.51722,2.279605 -19.178171,8.165411 -24.854446,16.890573 -2.451475,3.76823 -4.423573,8.612475 -5.468226,13.432099 C 25.717586,58.528966 25.657791,59.42226 25.657791,64 c 0,5.813882 0.260737,7.596508 1.778426,12.158895 4.563123,13.717395 16.294371,23.629556 30.740429,25.973715 2.986111,0.48455 10.542369,0.30391 13.450297,-0.32156 z"
       id="path4"
       transform="translate(0.40987111,0.40985669)" />
    <path
       style="fill:#f3f7fd;fill-opacity:1;fill-rule:evenodd;stroke-width:0.737008;stroke-opacity:1;stroke:#000000"
       d="M 58.694301,127.44061 C 44.435353,126.09083 31.33413,120.35202 21.222798,111.02676 9.5952293,100.30312 2.682198,86.820006 0.73845375,71.074266 0.36495459,68.048651 0.36233234,59.888744 0.73390699,56.925734 2.7176765,41.106764 9.5806061,27.723319 21.222798,16.970207 30.503366,8.3983674 41.957169,3.0211228 55.375464,0.93646971 c 4.299668,-0.66799228 12.949404,-0.66799228 17.249072,0 11.522043,1.79005299 20.71772,5.61061139 29.841784,12.39846529 3.53361,2.628834 9.69539,8.82471 12.39632,12.464928 6.86291,9.249597 10.96518,19.546889 12.4,31.125871 0.37053,2.990171 0.37053,11.158361 0,14.148532 -1.43297,11.564002 -5.54596,21.888241 -12.4,31.125874 -2.81835,3.79846 -8.86404,9.84415 -12.6625,12.6625 -9.032559,6.70188 -19.044485,10.76723 -30.211244,12.26731 -3.094214,0.41565 -10.385556,0.58604 -13.294595,0.31066 z m 13.595854,-12.79269 c 5.483249,-0.93604 9.695547,-2.31317 14.701209,-4.80628 10.030974,-4.99599 17.688066,-12.63865 22.782676,-22.73974 2.58883,-5.132891 4.10641,-9.86242 5.00095,-15.585492 0.55609,-3.557691 0.55609,-11.475125 0,-15.032816 C 113.88045,50.76052 112.36287,46.030991 109.77404,40.8981 104.67943,30.79701 97.022338,23.154349 86.991364,18.158357 81.935037,15.640021 77.303763,14.153266 71.626943,13.225994 68.183002,12.663449 59.799818,12.665057 56.373057,13.228921 50.568162,14.1841 45.964429,15.670699 40.8981,18.225964 30.79701,23.320572 23.154349,30.977662 18.158357,41.008636 c -2.518336,5.056327 -4.005091,9.687601 -4.932363,15.364421 -0.560706,3.432681 -0.560706,11.821205 0,15.253886 2.121367,12.987148 8.562444,24.23365 18.497667,32.298027 3.975342,3.22676 10.027012,6.6413 14.781653,8.34025 3.791906,1.35494 8.675219,2.44252 12.962734,2.88697 2.360513,0.2447 10.253037,-0.0657 12.822107,-0.50427 z"
       id="path5"
       transform="translate(0.40987111,0.40985669)" />
    <!--!Font Awesome Free 6.7.2 by @fontawesome - https://fontawesome.com License - https://fontawesome.com/license/free Copyright 2025 Fonticons, Inc.-->
  </g>
  <defs
     id="defs17" />
</svg>
